<svg width="37" height="37" viewBox="0 0 37 37" fill="none" xmlns="http://www.w3.org/2000/svg">
<path d="M16.1413 33.3596C16.1413 33.3596 12.5702 33.0071 11.5235 31.3708C10.088 29.1273 9.12167 24.8197 9.12167 24.8197C9.12167 24.8197 8.51939 22.6353 7.62814 23.0027C6.73689 23.3701 5.84442 23.3731 4.96047 25.9268C4.07652 28.4805 2.79045 34.4463 3.00098 36.0198C3.00098 36.0198 1.57519 29.5456 1.03909 28.4724C0.502999 27.3993 -0.396772 25.2159 0.193339 23.7563C0.783449 22.2968 -0.110236 21.9354 0.179952 19.748C0.470139 17.5607 -0.424763 16.8349 1.35165 14.2782C3.12807 11.7215 1.93081 9.53909 3.70966 7.71117C5.48851 5.88325 4.29612 5.15844 7.56363 3.68994C10.8311 2.22145 9.33762 0.404455 13.8012 0.753943C18.2647 1.10343 18.5549 -1.08391 22.1309 0.726123C25.7068 2.53616 27.782 0.342853 29.2779 2.88863C30.7739 5.4344 34.3498 7.24444 34.3608 10.524C34.3717 13.8035 36.7541 14.5243 36.1713 18.1702C35.5885 21.8161 36.1895 23.6361 34.7106 26.1918C33.2317 28.7475 34.1315 30.9309 32.9488 33.1212C31.7661 35.3116 31.3821 37 31.3821 37C31.3821 37 31.1493 28.7545 30.547 26.5701C29.9447 24.3858 29.6387 21.836 28.45 22.2044C27.2612 22.5727 26.3687 22.5757 25.7823 25.1285C25.1958 27.6812 23.9206 32.4517 22.0898 32.9753C18.2261 34.0814 16.1413 33.3596 16.1413 33.3596Z" fill="#010101"/>
</svg>
