<svg width="88" height="148" viewBox="0 0 88 148" fill="none" xmlns="http://www.w3.org/2000/svg">
<path d="M81.0077 135.18C81.0077 135.18 82.5029 136.635 82.5102 138.826C82.5175 141.017 81.9336 144.67 81.9336 144.67C81.9336 144.67 82.5309 145.033 80.4469 145.77C78.3628 146.507 74.1372 147.726 69.9926 147.32C65.848 146.914 66.4436 147.642 64.351 145.824C62.2585 144.005 61.0639 143.323 61.0547 140.563C61.0454 137.802 61.3362 135.611 61.6269 133.419C61.9177 131.228 61.0137 128.31 60.4127 126.851C59.8117 125.393 58.0123 122.113 57.7081 120.288C57.404 118.464 56.6909 115.589 58.8243 113.552C58.8243 113.552 64.2815 125.013 63.9993 129.76C63.7171 134.508 61.6489 139.991 66.1236 141.071C70.5983 142.152 76.8566 141.766 78.3409 139.935C79.8251 138.105 81.0077 135.18 81.0077 135.18Z" fill="#4D4D4D"/>
<path d="M61.5306 104.576L60.9504 109.324C60.9504 109.324 62.1536 112.606 67.5213 113.319C72.8891 114.031 74.6726 112.564 74.6726 112.564L74.9475 105.626L61.5306 104.576Z" fill="#DE9292"/>
<path d="M60.6425 106.404C60.6425 106.404 60.0574 109.692 59.4649 110.79C58.8724 111.887 57.6886 114.447 58.5938 117.73C59.499 121.012 62.7961 126.478 62.5114 130.495C62.2268 134.512 61.6441 138.531 63.1405 140.351C64.637 142.172 66.1334 143.992 69.1129 143.617C72.0924 143.242 75.3687 142.501 77.1572 142.495C78.9456 142.489 80.4347 142.119 81.0248 140.291C81.6148 138.464 81.8965 133.567 80.9898 129.809C80.083 126.052 77.6801 120.587 77.0718 116.938C76.4635 113.289 75.8551 109.639 75.2553 108.546C74.6555 107.453 74.3794 114.026 74.3794 114.026L66.9276 114.051C66.9276 114.051 65.7232 110.404 64.2316 110.043C62.74 109.683 60.6499 108.595 60.6425 106.404Z" fill="#006F66"/>
<path d="M75.0237 128.423C75.0237 128.423 72.2874 129.323 69.4796 128.442C69.4796 128.442 65.138 113.691 65.1319 111.866C65.1258 110.04 65.1234 109.31 66.9094 108.574C68.6954 107.838 73.1664 107.823 74.3636 109.279C75.5608 110.736 75.2651 111.467 75.2712 113.292C75.2773 115.118 75.0237 128.423 75.0237 128.423Z" fill="#008278"/>
<path d="M76.6816 0.104048C76.6816 0.104048 70.7165 -0.971356 65.9633 3.79093C61.21 8.55322 63.3026 10.3718 62.4157 12.5654C61.5288 14.759 60.6382 15.8573 61.2405 17.6808C61.8427 19.5044 62.1517 22.7893 61.5617 24.6168C60.9716 26.4443 61.0143 39.223 60.4255 41.4156C59.8367 43.6083 58.0641 48.3606 59.2759 54.1983C60.4877 60.036 62.6022 68.4264 61.4197 71.3512C60.2372 74.2761 59.0705 81.9472 59.9757 85.2302C60.8809 88.5131 62.9698 89.2364 61.7848 91.431C60.5999 93.6256 60.3384 104.58 60.3384 104.58C60.3384 104.58 61.2399 106.767 62.1378 107.86C63.0357 108.952 67.7963 106.38 71.0775 107.1C74.3587 107.819 74.9561 108.182 75.8478 107.449C76.7396 106.716 77.927 105.251 77.326 103.793C76.725 102.334 78.5134 102.328 77.91 100.14C77.3065 97.9511 79.3796 93.928 79.3796 93.928C79.3796 93.928 80.2689 92.4646 80.5536 88.4474C80.8382 84.4303 85.1996 51.5559 85.1996 51.5559C85.1996 51.5559 86.6277 32.9306 86.6094 27.4541C86.5911 21.9775 88.6752 21.2403 87.7737 19.0527C86.8721 16.865 87.4427 9.19583 85.3464 6.28196C83.2502 3.36809 82.3486 1.18045 76.6816 0.104048Z" fill="#54A7DD"/>
<path d="M8.13824 135.423C8.13824 135.423 6.57526 136.889 6.58258 139.08C6.5899 141.27 7.22804 144.919 7.22804 144.919C7.22804 144.919 6.60331 145.286 8.79955 146.009C10.9958 146.732 15.447 147.922 19.8064 147.488C24.1658 147.053 23.5393 147.786 25.73 145.953C27.9207 144.12 29.1703 143.429 29.1611 140.669C29.1518 137.909 28.8316 135.719 28.5113 133.53C28.191 131.34 29.1201 128.416 29.7442 126.954C30.3683 125.491 32.2351 122.199 32.545 120.372C32.8548 118.546 33.5844 115.666 31.3243 113.644C31.3243 113.644 25.6635 125.142 25.9923 129.887C26.3211 134.632 28.5332 140.102 23.8363 141.213C19.1394 142.324 12.5508 141.981 10.9798 140.16C9.40884 138.34 8.14122 135.423 8.14122 135.423L8.13824 135.423Z" fill="#4D4D4D"/>
<path d="M28.415 104.686L29.0568 109.431C29.0568 109.431 27.8129 112.721 22.1728 113.47C16.5328 114.219 14.6471 112.765 14.6471 112.765L14.3109 105.829L28.415 104.686Z" fill="#DE9292"/>
<path d="M29.36 106.509C29.36 106.509 29.9969 109.793 30.6295 110.886C31.2621 111.979 32.5225 114.531 31.5945 117.82C30.6666 121.109 27.2332 126.597 27.5626 130.612C27.889 134.627 28.5313 138.641 26.9696 140.472C25.4078 142.303 23.846 144.133 20.7091 143.779C17.5722 143.424 14.1211 142.705 12.2402 142.712C10.3594 142.718 8.79034 142.358 8.15829 140.535C7.52624 138.711 7.19394 133.816 8.12328 130.053C9.05263 126.289 11.5411 120.808 12.1549 117.154C12.7686 113.501 13.3854 109.848 14.0077 108.751C14.63 107.653 14.9679 114.224 14.9679 114.224L22.8071 114.198C22.8071 114.198 24.0498 110.543 25.6165 110.172C27.1831 109.802 29.3732 108.699 29.3659 106.509L29.36 106.509Z" fill="#006F66"/>
<path d="M14.3871 128.626C14.3871 128.626 17.2724 129.507 20.2174 128.606C20.2174 128.606 24.6838 113.827 24.6777 112.001C24.6716 110.176 24.6692 109.445 22.7859 108.721C20.9027 107.997 16.1991 108.013 14.9491 109.478C13.6991 110.942 14.0145 111.672 14.0206 113.497C14.0267 115.323 14.3841 128.626 14.3841 128.626L14.3871 128.626Z" fill="#008278"/>
<path d="M11.7617 0.320914C11.7617 0.320914 18.0295 -0.795346 23.0619 3.93426C28.0943 8.66387 25.9066 10.4967 26.8528 12.6842C27.799 14.8717 28.7446 15.9639 28.1248 17.7915C27.5049 19.6191 27.1999 22.9061 27.835 24.7295C28.47 26.5529 28.5097 39.3316 29.1459 41.5202C29.7822 43.7087 31.6759 48.4488 30.4435 54.2946C29.2081 60.1405 27.0424 68.5452 28.307 71.4619C29.5716 74.3785 30.8491 82.0415 29.9212 85.3306C28.9932 88.6197 26.7989 89.3572 28.0611 91.5437C29.3233 93.7301 29.6728 104.682 29.6728 104.682C29.6728 104.682 28.7382 106.876 27.803 107.974C26.8677 109.073 21.8426 106.534 18.3964 107.276C14.9502 108.017 14.3254 108.385 13.3811 107.657C12.4367 106.93 11.18 105.474 11.801 104.012C12.4221 102.549 10.5413 102.555 11.1629 100.363C11.7845 98.17 9.5743 94.1612 9.5743 94.1612C9.5743 94.1612 8.62752 92.7039 8.30113 88.6888C7.97475 84.6737 3.16144 51.83 3.16144 51.83C3.16144 51.83 1.53139 33.2149 1.5131 27.7383C1.49481 22.2617 -0.701431 21.5388 0.230176 19.3451C1.16178 17.1513 0.510227 9.48621 2.69428 6.55805C4.87832 3.62988 5.81291 1.43611 11.7647 0.320904L11.7617 0.320914Z" fill="#54A7DD"/>
</svg>
