<svg width="34" height="38" viewBox="0 0 34 38" fill="none" xmlns="http://www.w3.org/2000/svg">
<path d="M29.8372 20.8604C29.9096 20.2667 29.9458 19.6531 29.9458 19C29.9458 18.3667 29.9096 17.7333 29.8191 17.1396L33.4948 14.0125C33.8208 13.7354 33.9113 13.201 33.7121 12.8052L30.2355 6.23438C30.0183 5.79896 29.5656 5.66042 29.1672 5.79896L24.8396 7.69896C23.9342 6.94688 22.9745 6.31354 21.9062 5.83854L21.2543 0.811458C21.1819 0.336458 20.8198 0 20.3852 0H13.432C12.9974 0 12.6534 0.336458 12.5809 0.811458L11.9291 5.83854C10.8607 6.31354 9.88295 6.96667 8.9957 7.69896L4.66806 5.79896C4.2697 5.64063 3.81702 5.79896 3.59973 6.23438L0.141237 12.8052C-0.0760499 13.2208 -0.00362103 13.7354 0.358525 14.0125L4.0343 17.1396C3.94377 17.7333 3.87134 18.3865 3.87134 19C3.87134 19.6136 3.90755 20.2667 3.99809 20.8604L0.32231 23.9875C-0.003621 24.2646 -0.0941572 24.799 0.105023 25.1948L3.58162 31.7656C3.79891 32.2011 4.25159 32.3396 4.64995 32.2011L8.97759 30.3011C9.88295 31.0531 10.8426 31.6865 11.911 32.1615L12.5628 37.1886C12.6534 37.6636 12.9974 38 13.432 38H20.3852C20.8198 38 21.1819 37.6636 21.2362 37.1886L21.8881 32.1615C22.9564 31.6865 23.9342 31.0531 24.8215 30.3011L29.1491 32.2011C29.5475 32.3594 30.0001 32.2011 30.2174 31.7656L33.694 25.1948C33.9113 24.7594 33.8208 24.2646 33.4767 23.9875L29.8372 20.8604ZM16.9086 26.125C13.3233 26.125 10.39 22.9188 10.39 19C10.39 15.0813 13.3233 11.875 16.9086 11.875C20.4938 11.875 23.4272 15.0813 23.4272 19C23.4272 22.9188 20.4938 26.125 16.9086 26.125Z" fill="#652FA9"/>
</svg>
