<svg width="106" height="68" viewBox="0 0 106 68" fill="none" xmlns="http://www.w3.org/2000/svg">
<path d="M36.6311 0.0960625C36.6311 0.0960625 38.1792 15.4901 49.8529 15.4511C61.5267 15.4121 65.3994 -1.96381e-05 65.3994 -1.96381e-05C65.3994 -1.96381e-05 70.7642 2.91524 77.3616 6.55967C83.959 10.2041 89.1792 13.7505 89.1792 13.7505C89.1792 13.7505 90.062 14.5835 90.0136 15.3169C89.9652 16.0504 89.9615 14.9505 90.8631 16.0474C91.7648 17.1443 99.3178 38.0179 99.9323 42.7823C100.547 47.5467 105.675 59.2622 105.675 59.2622C105.675 59.2622 106.575 59.9925 105.38 60.7298C104.185 61.4671 100.304 64.4132 97.61 64.4222C94.916 64.4312 88.6412 67.752 88.6412 67.752L11.388 59.9438C11.388 59.9438 8.6879 58.1196 5.39408 57.7639C2.10026 57.4083 1.20228 57.4113 1.20228 57.4113C1.20228 57.4113 0.0049778 57.4153 7.96505e-05 55.9487C-0.00481848 54.4821 0.293284 54.1145 1.4759 49.7108C2.65851 45.3071 6.48608 26.2287 6.48608 26.2287C6.48608 26.2287 9.73826 14.1185 13.0223 11.541C16.3063 8.96346 36.6311 0.0960625 36.6311 0.0960625Z" fill="#EDCBB7"/>
</svg>
