<svg width="85" height="43" viewBox="0 0 85 43" fill="none" xmlns="http://www.w3.org/2000/svg">
<path d="M76.3885 0.870719C76.3885 0.870719 81.2644 4.20698 83.0091 9.62492C84.7538 15.0429 82.6766 15.0462 83.8774 18.6823C85.0783 22.3184 82.4596 39.0716 82.4596 39.0716C82.4596 39.0716 78.3162 44.1816 72.3678 42.7454C66.4195 41.3093 59.2775 38.421 54.2231 37.7099C49.1687 36.9987 44.1131 35.9236 44.1131 35.9236C44.1131 35.9236 45.0083 37.0126 40.8503 37.7546C36.6922 38.4965 32.5342 39.2384 25.9903 37.4402C19.4464 35.642 3.07228 32.2203 3.07228 32.2203C3.07228 32.2203 1.88384 26.9643 0.690281 25.5123C-0.503283 24.0602 0.0932681 24.7171 0.67619 21.2934C1.25911 17.8698 0.65624 15.3201 2.13361 12.7671C3.61097 10.2141 10.1148 3.09332e-05 10.1148 3.09332e-05L76.3885 0.870719Z" fill="#2685C3"/>
</svg>
