<svg width="88" height="59" viewBox="0 0 88 59" fill="none" xmlns="http://www.w3.org/2000/svg">
<path d="M19.25 27.6562H74.25C74.9793 27.6562 75.6788 27.8505 76.1945 28.1963C76.7103 28.542 77 29.011 77 29.5C77 29.989 76.7103 30.458 76.1945 30.8037C75.6788 31.1495 74.9793 31.3438 74.25 31.3438H19.25C18.5207 31.3438 17.8212 31.1495 17.3055 30.8037C16.7897 30.458 16.5 29.989 16.5 29.5C16.5 29.011 16.7897 28.542 17.3055 28.1963C17.8212 27.8505 18.5207 27.6562 19.25 27.6562Z" fill="black"/>
<path d="M20.3885 29.5L43.197 44.7884C43.7134 45.1346 44.0035 45.6041 44.0035 46.0938C44.0035 46.5834 43.7134 47.0529 43.197 47.3991C42.6806 47.7453 41.9803 47.9398 41.25 47.9398C40.5197 47.9398 39.8194 47.7453 39.303 47.3991L14.553 30.8054C14.2969 30.6341 14.0937 30.4307 13.9551 30.2067C13.8164 29.9827 13.7451 29.7425 13.7451 29.5C13.7451 29.2575 13.8164 29.0174 13.9551 28.7934C14.0937 28.5694 14.2969 28.3659 14.553 28.1946L39.303 11.6009C39.8194 11.2547 40.5197 11.0602 41.25 11.0602C41.9803 11.0602 42.6806 11.2547 43.197 11.6009C43.7134 11.9471 44.0035 12.4166 44.0035 12.9063C44.0035 13.3959 43.7134 13.8654 43.197 14.2116L20.3885 29.5Z" fill="black"/>
</svg>
